<?xml version="1.0" standalone="no"?>
<!DOCTYPE svg PUBLIC "-//W3C//DTD SVG 1.0//EN" "http://www.w3.org/TR/2001/REC-SVG-20010904/DTD/svg10.dtd">
<svg xmlns="http://www.w3.org/2000/svg" xmlns:xlink="http://www.w3.org/1999/xlink" id="body_1" width="1024" height="768">

<g transform="matrix(1.5 0 0 1.5 128.00003 -0)">
    <path d="M256 0C 114.6 0 0 114.6 0 256C 0 397.4 114.6 512 256 512C 397.4 512 512 397.4 512 256C 512 114.6 397.4 0 256 0zM310.6 345.4C 323.1 357.9 323.1 378.15 310.6 390.65C 298.1 403.15 277.85 403.15 265.35 390.65L265.35 390.65L153.35 278.65C 147.1 272.4 144 264.2 144 256C 144 247.79999 147.125 239.62 153.375 233.38L153.375 233.38L265.375 121.380005C 277.875 108.880005 298.125 108.880005 310.625 121.380005C 323.125 133.88 323.125 154.13 310.625 166.63L310.625 166.63L221.3 256L310.6 345.4z" stroke="none" fill="#000000" fill-rule="nonzero" />
</g>
</svg>